<svg width="67" height="58" viewBox="0 0 67 58" fill="none" xmlns="http://www.w3.org/2000/svg">
<path d="M12.375 5.96202V1M25.375 5.96202V1M38.375 5.96202V1M1 28.6456H51.4075M52.3175 24.3073V45.0628C52.3175 48.2287 50.876 51.265 48.31 53.5037C45.744 55.7423 42.2638 57 38.635 57H14.6825C7.1425 57 1 51.641 1 45.0628V24.3073C1 21.1414 2.44154 18.1051 5.00751 15.8665C7.57348 13.6278 11.0537 12.3701 14.6825 12.3701H38.635C46.175 12.3701 52.3175 17.7291 52.3175 24.3073ZM66 31.9347C66 38.5129 59.8575 43.8719 52.3175 43.8719V19.9975C54.1143 19.9975 55.8935 20.3062 57.5536 20.9061C59.2136 21.506 60.722 22.3853 61.9925 23.4938C63.263 24.6023 64.2709 25.9182 64.9585 27.3665C65.6461 28.8148 66 30.3671 66 31.9347Z" stroke="white" stroke-width="1.5" stroke-linecap="round" stroke-linejoin="round"/>
</svg>
